<?xml version="1.0" encoding="UTF-8" standalone="no"?>
<!-- Created with Inkscape (http://www.inkscape.org/) -->

<svg
   version="1.1"
   id="svg2"
   width="29.971001"
   height="31.123013"
   viewBox="0 0 29.971 31.123012"
   sodipodi:docname="кисточка1.svg"
   inkscape:version="1.2.2 (732a01da63, 2022-12-09)"
   xmlns:inkscape="http://www.inkscape.org/namespaces/inkscape"
   xmlns:sodipodi="http://sodipodi.sourceforge.net/DTD/sodipodi-0.dtd"
   xmlns="http://www.w3.org/2000/svg"
   xmlns:svg="http://www.w3.org/2000/svg">
  <defs
     id="defs6" />
  <sodipodi:namedview
     id="namedview4"
     pagecolor="#ffffff"
     bordercolor="#000000"
     borderopacity="0.25"
     inkscape:showpageshadow="2"
     inkscape:pageopacity="0.0"
     inkscape:pagecheckerboard="0"
     inkscape:deskcolor="#d1d1d1"
     showgrid="false"
     inkscape:zoom="0.45921302"
     inkscape:cx="113.23721"
     inkscape:cy="8.7105543"
     inkscape:window-width="1304"
     inkscape:window-height="745"
     inkscape:window-x="-8"
     inkscape:window-y="-8"
     inkscape:window-maximized="1"
     inkscape:current-layer="g8" />
  <g
     inkscape:groupmode="layer"
     inkscape:label="Image"
     id="g8"
     transform="translate(-18.284006,-562.65641)">
    <path
       style="fill:#000000;stroke-width:0.034243"
       d="m 20.727681,593.70408 c -0.897312,-0.17761 -1.643392,-0.4489 -2.143919,-0.77959 -0.149889,-0.099 -0.284356,-0.19302 -0.298817,-0.20887 -0.01446,-0.0159 0.139833,-0.15861 0.342874,-0.31723 0.818442,-0.63941 1.585769,-1.5161 2.056914,-2.35008 0.324469,-0.57434 0.608378,-1.32626 0.892499,-2.36374 0.199887,-0.7299 0.38065,-1.23515 0.537168,-1.50145 0.146864,-0.24987 0.582372,-0.74305 0.866453,-0.98119 0.410645,-0.34423 0.863361,-0.52858 1.371496,-0.55848 1.326511,-0.078 2.6504,0.96525 3.063323,2.41406 0.245433,0.86114 0.181263,1.94358 -0.168834,2.84796 -0.58049,1.49954 -2.093649,3.05534 -3.445062,3.54214 -0.690838,0.24886 -1.057975,0.31211 -1.898527,0.3271 -0.677375,0.0121 -0.792704,0.005 -1.175568,-0.0706 z m 7.89057,-6.81868 c -0.126866,-0.045 -0.493062,-0.41787 -1.645366,-1.67533 l -0.808203,-0.88195 v -0.22648 c 0,-0.13766 0.02076,-0.27155 0.05294,-0.3414 0.0979,-0.21251 0.379218,-0.64742 1.14278,-1.76673 0.908357,-1.33157 1.363549,-1.94818 1.504767,-2.0384 0.174494,-0.11147 0.34594,-0.0912 0.559058,0.0662 0.263256,0.19435 2.982527,3.19093 3.057016,3.36876 0.08124,0.19395 0.05616,0.44548 -0.0613,0.61483 -0.131456,0.18953 -0.569106,0.57938 -1.650956,1.47067 -1.700102,1.40065 -1.86747,1.51036 -2.150738,1.40987 z m 4.68894,-4.27647 c -0.103654,-0.048 -0.257947,-0.14792 -0.342875,-0.22194 -0.230427,-0.20086 -2.201535,-2.38567 -2.525548,-2.79938 -0.331848,-0.4237 -0.375362,-0.50879 -0.425746,-0.83254 -0.05611,-0.3605 0.02025,-0.71347 0.212336,-0.98155 0.712874,-0.99492 4.809824,-5.31208 7.874602,-8.29787 3.910509,-3.80973 7.123094,-6.3119 8.666872,-6.75034 0.270315,-0.0768 0.788196,-0.0928 0.991636,-0.0307 0.166102,0.0507 0.346711,0.23207 0.427015,0.42875 0.195946,0.47992 -0.02727,1.43755 -0.606825,2.60339 -1.547254,3.11248 -5.672684,8.52225 -11.209394,14.69914 -1.276763,1.42439 -1.849269,2.00556 -2.105661,2.13752 -0.299047,0.15392 -0.683057,0.17218 -0.956412,0.0455 z"
       id="path170"
       inkscape:transform-center-x="0.42618982"
       inkscape:transform-center-y="-0.47098343" />
  </g>
</svg>
